<svg width="31" height="27" viewBox="0 0 31 27" fill="none" xmlns="http://www.w3.org/2000/svg" id="arrow">
<path d="M16.6407 25.762C16.4703 25.5921 16.3351 25.3904 16.2429 25.1682C16.1506 24.946 16.1031 24.7078 16.1031 24.4672C16.1031 24.2267 16.1506 23.9885 16.2429 23.7663C16.3351 23.5441 16.4703 23.3423 16.6407 23.1725L24.4837 15.3295L2.09264 15.3295C1.60787 15.3295 1.14295 15.137 0.800161 14.7942C0.457373 14.4514 0.264797 13.9865 0.264797 13.5017C0.264797 13.0169 0.457373 12.552 0.800161 12.2092C1.14295 11.8664 1.60787 11.6738 2.09264 11.6738L24.4837 11.6738L16.6407 3.82783C16.2974 3.48445 16.1045 3.01872 16.1045 2.53311C16.1045 2.04749 16.2974 1.58177 16.6407 1.23839C16.9841 0.895004 17.4499 0.702094 17.9355 0.702094C18.4211 0.702094 18.8868 0.895004 19.2302 1.23839L30.1973 12.2054C30.3677 12.3753 30.5029 12.577 30.5951 12.7992C30.6874 13.0214 30.7349 13.2596 30.7349 13.5002C30.7349 13.7407 30.6874 13.9789 30.5951 14.2011C30.5029 14.4233 30.3677 14.6251 30.1973 14.7949L19.2302 25.762C19.0604 25.9324 18.8586 26.0676 18.6364 26.1598C18.4142 26.2521 18.176 26.2996 17.9355 26.2996C17.6949 26.2996 17.4567 26.2521 17.2345 26.1598C17.0123 26.0676 16.8106 25.9324 16.6407 25.762Z" fill="#C9AD32"/>
</svg>
