<svg width="47" height="47" viewBox="0 0 47 47" fill="none" xmlns="http://www.w3.org/2000/svg">
<g id="instagram">
<path id="Vector" d="M15.2751 3.91675H31.7251C37.9918 3.91675 43.0834 9.00842 43.0834 15.2751V31.7251C43.0834 34.7375 41.8867 37.6265 39.7566 39.7566C37.6265 41.8867 34.7375 43.0834 31.7251 43.0834H15.2751C9.00842 43.0834 3.91675 37.9918 3.91675 31.7251V15.2751C3.91675 12.2627 5.11343 9.37363 7.24353 7.24353C9.37363 5.11343 12.2627 3.91675 15.2751 3.91675ZM14.8834 7.83341C13.0136 7.83341 11.2204 8.57618 9.89831 9.89831C8.57618 11.2204 7.83341 13.0136 7.83341 14.8834V32.1167C7.83341 36.0138 10.9863 39.1667 14.8834 39.1667H32.1167C33.9865 39.1667 35.7797 38.424 37.1019 37.1019C38.424 35.7797 39.1667 33.9865 39.1667 32.1167V14.8834C39.1667 10.9863 36.0138 7.83341 32.1167 7.83341H14.8834ZM33.7813 10.7709C34.4306 10.7709 35.0532 11.0288 35.5123 11.4879C35.9713 11.947 36.2292 12.5696 36.2292 13.2188C36.2292 13.8681 35.9713 14.4907 35.5123 14.9498C35.0532 15.4088 34.4306 15.6667 33.7813 15.6667C33.1321 15.6667 32.5095 15.4088 32.0504 14.9498C31.5913 14.4907 31.3334 13.8681 31.3334 13.2188C31.3334 12.5696 31.5913 11.947 32.0504 11.4879C32.5095 11.0288 33.1321 10.7709 33.7813 10.7709ZM23.5001 13.7084C26.097 13.7084 28.5875 14.74 30.4238 16.5763C32.2601 18.4126 33.2917 20.9032 33.2917 23.5001C33.2917 26.097 32.2601 28.5875 30.4238 30.4238C28.5875 32.2601 26.097 33.2917 23.5001 33.2917C20.9032 33.2917 18.4126 32.2601 16.5763 30.4238C14.74 28.5875 13.7084 26.097 13.7084 23.5001C13.7084 20.9032 14.74 18.4126 16.5763 16.5763C18.4126 14.74 20.9032 13.7084 23.5001 13.7084ZM23.5001 17.6251C21.9419 17.6251 20.4476 18.2441 19.3458 19.3458C18.2441 20.4476 17.6251 21.9419 17.6251 23.5001C17.6251 25.0582 18.2441 26.5526 19.3458 27.6543C20.4476 28.7561 21.9419 29.3751 23.5001 29.3751C25.0582 29.3751 26.5526 28.7561 27.6543 27.6543C28.7561 26.5526 29.3751 25.0582 29.3751 23.5001C29.3751 21.9419 28.7561 20.4476 27.6543 19.3458C26.5526 18.2441 25.0582 17.6251 23.5001 17.6251Z" fill="#5D5D5D"/>
</g>
</svg>
