<svg width="49" height="49" viewBox="0 0 49 49" fill="none" xmlns="http://www.w3.org/2000/svg">
<path d="M24.5 0C11.0101 0 0 11.0101 0 24.5C0 37.9899 11.0101 49 24.5 49C37.9899 49 49 37.9899 49 24.5C49 11.0101 37.9899 0 24.5 0ZM6.84413 24.5C6.84413 19.4413 9.02631 14.7794 12.498 11.6053C13.8866 10.3158 16.2672 10.7126 17.2591 12.3988L23.4089 23.0122C24.004 24.0041 24.004 25.1943 23.4089 26.1862L17.2591 36.7996C16.2672 38.585 13.8866 38.8826 12.3988 37.4939C9.02632 34.1214 6.84413 29.5587 6.84413 24.5ZM31.7409 36.6012L25.5911 25.9879C24.996 24.996 24.996 23.8057 25.5911 22.8138L31.7409 12.2004C32.7328 10.5142 35.0142 10.1174 36.502 11.4069C39.9737 14.581 42.1559 19.2429 42.1559 24.3016C42.1559 29.3603 39.9737 34.0223 36.502 37.1964C35.0142 38.7834 32.7328 38.3866 31.7409 36.6012Z" fill="#EAE3B9"/>
</svg>
