<svg  viewBox="0 0 100 100" fill="none" xmlns="http://www.w3.org/2000/svg">
<g id="mouse">
<path id="Vector" d="M14.9586 34.8977L13.9954 40.0992L18.041 44.1448L30.3705 68.8039L55.0296 69.7672L58.112 62.6584L61.1943 53.392L62.1576 32.7786L58.112 28.7329L51.9472 25.6505L42.7001 22.5682L36.5353 21.6049L33.4529 7.15625H27.2881L26.3249 40.0992L20.1601 33.9345L14.9586 34.8977Z" fill="white"/>
<path id="Vector_2" d="M24.2058 7.15636H27.2881V41.0626H24.2058V37.9802H21.1234V34.8978H24.2058V7.15636ZM61.1943 31.8154V53.3921H64.2767V31.8154H61.1943ZM11.8762 31.8154V41.0626H14.9586V34.8978H21.1234V31.8154H11.8762ZM21.1234 50.3097V44.145H18.041V50.3097H21.1234ZM24.2058 56.4745L24.2058 50.3097H21.1234L21.1234 56.4745H24.2058ZM27.2881 62.6393V71.8864H58.112L58.112 62.6585H55.0296L55.0296 68.804H30.3705V62.6393H27.2881V56.4745H24.2058V62.6393H27.2881ZM58.112 62.6393H61.1943V53.3921H58.112V62.6393ZM18.041 44.145L18.041 41.0626H14.9586V44.145H18.041ZM58.112 28.733V31.8154H61.1943V28.733H58.112ZM51.9472 25.6507V37.9802H55.0296V28.733H58.112V25.6507H51.9472ZM42.7 22.5683V34.8978H45.7824V25.6507H51.9472V22.5683L42.7 22.5683ZM36.5353 19.4859V7.15636H33.4529V34.8978H36.5353V22.5683H42.7V19.4859H36.5353ZM27.2881 4.07397V7.15636L33.4529 7.15636V4.07397H27.2881Z" fill="black"/>
</g>
</g>
</svg>
