<svg width="47" height="47" viewBox="0 0 47 47" fill="none" xmlns="http://www.w3.org/2000/svg">
<g id="phone">
<path id="Vector" d="M12.9642 21.1304C15.7842 26.6725 20.3275 31.1962 25.8696 34.0358L30.1779 29.7275C30.7067 29.1988 31.49 29.0225 32.1754 29.2575C34.3688 29.9821 36.7383 30.3738 39.1667 30.3738C40.2438 30.3738 41.125 31.255 41.125 32.3321V39.1667C41.125 40.2438 40.2438 41.125 39.1667 41.125C20.7779 41.125 5.875 26.2221 5.875 7.83333C5.875 6.75625 6.75625 5.875 7.83333 5.875H14.6875C15.7646 5.875 16.6458 6.75625 16.6458 7.83333C16.6458 10.2813 17.0375 12.6313 17.7621 14.8246C17.9775 15.51 17.8208 16.2738 17.2725 16.8221L12.9642 21.1304Z" fill="#5D5D5D"/>
</g>
</svg>
