<svg width="47" height="47" viewBox="0 0 47 47" fill="none" xmlns="http://www.w3.org/2000/svg">
<g id="tele">
<path id="Vector" d="M23.5001 3.91675C12.6901 3.91675 3.91675 12.6901 3.91675 23.5001C3.91675 34.3101 12.6901 43.0834 23.5001 43.0834C34.3101 43.0834 43.0834 34.3101 43.0834 23.5001C43.0834 12.6901 34.3101 3.91675 23.5001 3.91675ZM32.5867 17.2334C32.293 20.3276 31.0201 27.8476 30.3738 31.3138C30.0997 32.7826 29.5513 33.2722 29.0422 33.3309C27.9063 33.4288 27.0447 32.5867 25.948 31.8622C24.2247 30.7263 23.2455 30.0213 21.5809 28.9247C19.6422 27.6517 20.8955 26.9467 22.0117 25.8109C22.3055 25.5172 27.3188 20.9542 27.4167 20.543C27.4304 20.4807 27.4285 20.416 27.4115 20.3546C27.3944 20.2932 27.3626 20.2368 27.3188 20.1905C27.2013 20.0926 27.0447 20.1317 26.9076 20.1513C26.7313 20.1905 23.9897 22.0117 18.6434 25.6151C17.8601 26.1438 17.1551 26.418 16.5284 26.3984C15.8234 26.3788 14.4917 26.0067 13.493 25.6738C12.2592 25.2822 11.2997 25.0667 11.378 24.3813C11.4172 24.0288 11.9067 23.6763 12.8272 23.3042C18.5455 20.8172 22.3447 19.1722 24.2442 18.3888C29.6884 16.1172 30.8047 15.7255 31.5488 15.7255C31.7055 15.7255 32.0776 15.7647 32.3126 15.9605C32.5084 16.1172 32.5672 16.3326 32.5867 16.4892C32.5672 16.6067 32.6063 16.9592 32.5867 17.2334Z" fill="#5D5D5D"/>
</g>
</svg>
