<svg width="47" height="47" viewBox="0 0 47 47" fill="none" xmlns="http://www.w3.org/2000/svg">
<g id="tik-tok">
<path id="Vector" fill-rule="evenodd" clip-rule="evenodd" d="M24.3268 5.17124C26.331 5.14062 28.3198 5.15591 30.3087 5.14062C30.4311 7.48145 31.2725 9.86812 32.9859 11.5204C34.6994 13.2187 37.1166 13.9989 39.4727 14.259V20.4246C37.2696 20.3481 35.0513 19.8891 33.0471 18.9406C32.1751 18.5428 31.3643 18.0379 30.5687 17.5177C30.5534 21.9851 30.5841 26.4526 30.5382 30.9046C30.4157 33.0465 29.712 35.1732 28.4728 36.9325C26.4687 39.87 22.9958 41.7824 19.4312 41.8436C17.2435 41.966 15.0557 41.3693 13.1893 40.2678C10.0989 38.4472 7.92648 35.1119 7.60523 31.5319C7.57462 30.7669 7.55933 30.002 7.5899 29.2523C7.86529 26.3454 9.30338 23.561 11.537 21.6638C14.0766 19.4608 17.6259 18.4051 20.9458 19.0324C20.9764 21.2967 20.8846 23.561 20.8846 25.8253C19.37 25.3357 17.5953 25.4734 16.2643 26.3913C15.3005 27.0186 14.5662 27.9824 14.1837 29.0687C13.8624 29.849 13.9542 30.7057 13.9695 31.5319C14.3367 34.041 16.7539 36.1523 19.3241 35.9228C21.0376 35.9075 22.6746 34.913 23.5619 33.4596C23.8525 32.9547 24.1738 32.4345 24.1891 31.8379C24.3421 29.0993 24.2809 26.376 24.2962 23.6375C24.3115 17.4718 24.2809 11.3215 24.3268 5.17124Z" fill="#5D5D5D"/>
</g>
</svg>
